<svg width="151" height="154" viewBox="0 0 151 154" fill="none" xmlns="http://www.w3.org/2000/svg">
<g filter="url(#filter0_d_0_1093)">
<ellipse cx="75.5" cy="74" rx="72.5" ry="74" fill="#2A45C2"/>
</g>
<ellipse cx="75.5" cy="70.7192" rx="72.5" ry="70.7192" fill="#4664F4"/>
<ellipse cx="75.5" cy="70.7192" rx="72.5" ry="70.7192" fill="url(#paint0_linear_0_1093)"/>
<ellipse cx="75.5001" cy="72.1774" rx="55.6566" ry="55.4089" fill="#BABFD4"/>
<ellipse cx="75.5001" cy="75.0937" rx="55.6566" ry="52.4926" fill="url(#paint1_linear_0_1093)"/>
<path d="M97.1245 57.8319C96.7144 57.6752 96.2874 57.6073 95.8933 57.6347C95.3238 57.6743 94.8638 57.9056 94.5914 58.284C92.9865 60.5321 91.6721 64.7777 90.6122 68.1889C90.1257 69.7665 89.4727 71.8776 88.9998 72.8796C88.5065 70.0724 89.0637 59.7893 89.2798 55.8293L89.2833 55.7653C89.4332 53.014 89.4533 52.5315 89.4205 52.3197C89.1824 50.8104 88.5776 49.8198 87.6221 49.3764C86.6561 48.9267 85.4016 49.1256 84.0501 49.9388C83.3726 50.3485 83.1852 51.7549 82.6036 58.1296L82.6015 58.1576C82.2813 61.6598 81.5442 69.7236 80.6371 71.0665C79.6137 69.1876 78.2057 58.5124 77.5979 53.8917C77.1726 50.6555 76.9249 48.7974 76.7585 48.2363C76.4079 47.0606 74.928 46.0602 73.4626 46.0047C72.2429 45.9442 71.2421 46.5646 70.7644 47.6426C69.8709 48.637 70.1866 51.9346 71.1743 59.7448C71.6444 63.4618 72.6149 71.1398 72.0041 72.001C70.7864 71.8687 68.6958 67.0593 65.7897 57.7025C64.9744 55.0821 64.722 54.2939 64.4715 53.9489C63.9779 52.7473 62.3002 51.8204 60.796 51.9251C60.6675 51.934 60.5426 51.9507 60.4193 51.9742C59.6319 52.1306 57.8351 52.8553 58.2181 56.2C59.2791 60.8369 60.4316 64.2415 61.5501 67.546L61.5727 67.6121C62.2419 69.5914 62.8745 71.4615 63.4624 73.537C64.848 78.4372 64.3092 81.4776 64.3026 81.5118C64.2566 81.8248 64.1599 82.0158 64.0146 82.0826C63.9623 82.1072 63.8953 82.1218 63.8197 82.1271C63.3806 82.1576 62.722 81.8669 62.3825 81.6774C61.6072 80.1956 57.7467 73.1331 54.2486 72.1536L54.123 72.1165L53.9958 72.1283C52.7128 72.2495 51.7694 72.7344 51.1929 73.5694C50.2793 74.8898 50.6574 76.5716 50.7492 76.9088L50.8008 77.0297C50.8293 77.0805 53.6346 82.1946 54.0687 84.5736C54.4431 86.6131 56.3801 88.8237 57.9374 90.5997L58.0016 90.6719C58.5096 91.2531 58.948 91.7553 59.2938 92.2202C63.8125 96.9332 70.9587 100.898 71.0169 100.929C71.9085 101.587 72.4044 102.223 72.4567 102.77C72.4899 103.129 72.3038 103.343 72.2973 103.35L72.1417 103.512L73.1295 104.472L91.983 103.148L92.7868 99.4648C95.2724 89.0623 94.7535 80.1927 94.7453 80.1335C94.7544 79.8071 95.4511 76.6513 96.0113 74.1015L96.0278 74.0367C97.1445 68.9572 98.5334 62.6369 98.7997 60.233C98.9156 59.2052 98.258 58.261 97.1245 57.8319Z" fill="#3B4262"/>
<defs>
<filter id="filter0_d_0_1093" x="0" y="0" width="151" height="154" filterUnits="userSpaceOnUse" color-interpolation-filters="sRGB">
<feFlood flood-opacity="0" result="BackgroundImageFix"/>
<feColorMatrix in="SourceAlpha" type="matrix" values="0 0 0 0 0 0 0 0 0 0 0 0 0 0 0 0 0 0 127 0" result="hardAlpha"/>
<feOffset dy="3"/>
<feGaussianBlur stdDeviation="1.5"/>
<feColorMatrix type="matrix" values="0 0 0 0 0 0 0 0 0 0 0 0 0 0 0 0 0 0 0.196706 0"/>
<feBlend mode="normal" in2="BackgroundImageFix" result="effect1_dropShadow_0_1093"/>
<feBlend mode="normal" in="SourceGraphic" in2="effect1_dropShadow_0_1093" result="shape"/>
</filter>
<linearGradient id="paint0_linear_0_1093" x1="3" y1="0" x2="3" y2="141.438" gradientUnits="userSpaceOnUse">
<stop stop-color="white" stop-opacity="0.0966455"/>
<stop offset="1" stop-color="white" stop-opacity="0.01"/>
</linearGradient>
<linearGradient id="paint1_linear_0_1093" x1="130.234" y1="127.586" x2="130.234" y2="24.3412" gradientUnits="userSpaceOnUse">
<stop stop-color="#F3F3F3"/>
<stop offset="1" stop-color="#DADADA"/>
</linearGradient>
</defs>
</svg>
