<svg width="151" height="154" viewBox="0 0 151 154" fill="none" xmlns="http://www.w3.org/2000/svg">
<g filter="url(#filter0_d_0_1103)">
<ellipse cx="75.5" cy="74" rx="72.5" ry="74" fill="#2D8DAB"/>
</g>
<ellipse cx="75.5" cy="70.7192" rx="72.5" ry="70.7192" fill="#3FB7CD"/>
<ellipse cx="75.5" cy="70.7192" rx="72.5" ry="70.7192" fill="url(#paint0_linear_0_1103)"/>
<ellipse cx="75.5" cy="72.1774" rx="55.6566" ry="55.4089" fill="#BABFD4"/>
<ellipse cx="75.5" cy="75.0937" rx="55.6566" ry="52.4926" fill="url(#paint1_linear_0_1103)"/>
<path d="M100.041 76.4218L99.1785 75.5627C97.1164 73.5086 93.7455 73.0613 91.228 74.5018L85.8522 77.5609L86.9726 53.0595C86.9726 51.0054 85.2944 49.3335 83.2298 49.3335C82.784 49.3335 82.3549 49.4119 81.9568 49.5554L82.0903 48.2406C82.0905 46.1629 80.3859 44.4731 78.2928 44.4731C76.3571 44.4731 74.7336 45.9185 74.5285 47.7719L71.079 68.5213C71.0337 68.8037 70.5425 68.7752 70.4901 68.5973L66.4159 51.962C65.9701 50.4147 64.5302 49.3336 62.9139 49.3336C61.7959 49.3336 60.7564 49.8344 60.0604 50.7078C59.3666 51.5812 59.114 52.7048 59.3714 53.7883L60.1629 57.1381C59.7123 57.1013 59.2594 57.1618 58.8279 57.3066C57.2211 57.8394 56.2413 59.4366 56.5012 61.1239L58.8994 74.8508C58.8994 80.2666 59.853 84.2738 60.654 86.6803C61.1093 88.0532 61.3406 89.4973 61.3406 90.9723C61.3406 92.2562 61.1617 93.5343 60.8065 94.7683L58.947 101.25C58.8421 101.616 58.916 102.01 59.1449 102.315C59.3761 102.619 59.7361 102.798 60.1199 102.798H82.0903C82.4837 102.798 82.8508 102.611 83.0797 102.294C83.3109 101.977 83.3729 101.569 83.2489 101.199C83.237 101.167 82.2167 98.0292 83.1822 93.7609C84.4076 92.7711 88.6962 89.2991 90.2363 87.899C92.7824 85.5838 99.7577 78.4308 100.053 78.1271C100.518 77.6512 100.513 76.8917 100.041 76.4218Z" fill="#3B4262"/>
<defs>
<filter id="filter0_d_0_1103" x="0" y="0" width="151" height="154" filterUnits="userSpaceOnUse" color-interpolation-filters="sRGB">
<feFlood flood-opacity="0" result="BackgroundImageFix"/>
<feColorMatrix in="SourceAlpha" type="matrix" values="0 0 0 0 0 0 0 0 0 0 0 0 0 0 0 0 0 0 127 0" result="hardAlpha"/>
<feOffset dy="3"/>
<feGaussianBlur stdDeviation="1.5"/>
<feColorMatrix type="matrix" values="0 0 0 0 0 0 0 0 0 0 0 0 0 0 0 0 0 0 0.196706 0"/>
<feBlend mode="normal" in2="BackgroundImageFix" result="effect1_dropShadow_0_1103"/>
<feBlend mode="normal" in="SourceGraphic" in2="effect1_dropShadow_0_1103" result="shape"/>
</filter>
<linearGradient id="paint0_linear_0_1103" x1="3" y1="0" x2="3" y2="141.438" gradientUnits="userSpaceOnUse">
<stop stop-color="white" stop-opacity="0.0966455"/>
<stop offset="1" stop-color="white" stop-opacity="0.01"/>
</linearGradient>
<linearGradient id="paint1_linear_0_1103" x1="130.234" y1="127.586" x2="130.234" y2="24.3412" gradientUnits="userSpaceOnUse">
<stop stop-color="#F3F3F3"/>
<stop offset="1" stop-color="#DADADA"/>
</linearGradient>
</defs>
</svg>
